<svg width="1440" height="1019" viewBox="0 0 1440 1019" fill="none" xmlns="http://www.w3.org/2000/svg">
<path d="M868.798 892.403C1120.89 952.113 1384.27 835.051 1484.45 769.056L1459.48 468.515L-91.0001 537.15L-58.0534 1018.01C37.372 844.625 553.689 817.765 868.798 892.403Z" fill="#D5CBCB"/>
<path d="M896.214 864.562C1145.41 935.362 1413.71 830.062 1516.71 768.562V570.515H-35.2859V949.062C67.7141 780.062 584.714 776.062 896.214 864.562Z" fill="#983D42"/>
<path d="M647.916 126.612C395.828 66.9019 132.448 183.964 32.2683 249.959L57.2326 704.635L1607.71 636L1574.77 1.00026C1479.34 174.39 963.025 201.25 647.916 126.612Z" fill="#D5CBCB"/>
<path d="M620.5 154.454C371.3 83.6535 103 188.953 0 250.453V727H1552V69.9535C1449 238.953 932 242.953 620.5 154.454Z" fill="#983D42"/>
</svg>
