<svg width="25" height="24" viewBox="0 0 25 24" fill="none" xmlns="http://www.w3.org/2000/svg">
<g clip-path="url(#clip0_2_1675)">
<path d="M17.441 4.97602C15.5901 4.98847 13.8187 5.73008 12.511 7.04002C11.2174 8.33669 10.4807 10.0869 10.4575 11.9183C10.4343 13.7498 11.1266 15.5181 12.387 16.847L14.782 14.452C14.1579 13.7578 13.8238 12.8505 13.8487 11.9173C13.8736 10.984 14.2555 10.0959 14.9158 9.43584C15.5761 8.77583 16.4644 8.39424 17.3976 8.36971C18.3309 8.34519 19.238 8.67959 19.932 9.30402L22.329 6.90502C21.0103 5.65425 19.2585 4.96358 17.441 4.97602ZM7.57002 4.98602C5.75238 4.97385 4.0006 5.66588 2.68202 6.91702L5.07302 9.30802C5.76649 8.68028 6.67484 8.34334 7.60992 8.36698C8.54501 8.39062 9.43517 8.77304 10.096 9.43502L11.83 6.46202L11.73 6.38202C10.5277 5.48494 9.07008 4.99579 7.57002 4.98602ZM22.58 7.15802L20.19 9.54802C20.8186 10.2416 21.1563 11.1503 21.1333 12.086C21.1103 13.0217 20.7284 13.9127 20.0665 14.5745C19.4047 15.2363 18.5137 15.6183 17.578 15.6413C16.6423 15.6643 15.7336 15.3266 15.04 14.698L12.634 17.105C13.966 18.3597 15.7343 19.0461 17.5639 19.0187C19.3935 18.9913 21.1404 18.2522 22.4342 16.9582C23.7279 15.6642 24.4666 13.9171 24.4937 12.0875C24.5207 10.2579 23.835 8.48969 22.58 7.15802ZM2.43202 7.16802C1.19206 8.47449 0.500616 10.2069 0.500244 12.0081C0.499872 13.8093 1.1906 15.542 2.43002 16.849L4.82702 14.452C4.21942 13.7825 3.88249 12.9109 3.88175 12.0068C3.88101 11.1027 4.21651 10.2305 4.82302 9.56002L2.43202 7.16802ZM10.096 14.591C9.4346 15.2511 8.54437 15.6311 7.61015 15.6522C6.67594 15.6732 5.7695 15.3337 5.07902 14.704L2.68202 17.1C3.88061 18.2335 5.43969 18.9093 7.08634 19.0091C8.73299 19.109 10.3623 18.6264 11.689 17.646L11.826 17.534L10.096 14.591Z" fill="black"/>
</g>
<defs>
<clipPath id="clip0_2_1675">
<rect width="24" height="24" fill="white" transform="translate(0.5)"/>
</clipPath>
</defs>
</svg>
