<svg width="27" height="27" viewBox="0 0 27 27" fill="none" xmlns="http://www.w3.org/2000/svg">
<path d="M4.97978 22.9508L3.08472 1.6875H23.9152L22.0176 22.9475L13.4873 25.3125L4.97978 22.9508Z" fill="#1572B6"/>
<path d="M13.5 23.5052L20.3934 21.5941L22.0151 3.42645H13.5V23.5052Z" fill="#33A9DC"/>
<path d="M13.5 11.1299H16.9509L17.1889 8.45941H13.5V5.85138H20.0391L19.9766 6.55085L19.3362 13.7379H13.5V11.1299Z" fill="white"/>
<path d="M13.516 17.9027L13.5042 17.906L10.6 17.1213L10.4144 15.0415H7.79626L8.16161 19.1362L13.5034 20.6195L13.516 20.6162V17.9027Z" fill="#EBEBEB"/>
<path d="M16.729 13.6274L16.4151 17.1197L13.5067 17.9043V20.6179L18.8527 19.1362L18.8924 18.6958L19.3455 13.6274H16.729Z" fill="white"/>
<path d="M13.5092 5.85138V8.45941H7.20979L7.15748 7.873L7.03851 6.55085L6.97607 5.85138H13.5092ZM13.4999 11.1299V13.7379H10.632L10.5797 13.1515L10.4616 11.8293L10.3992 11.1299H13.4999Z" fill="#EBEBEB"/>
</svg>
