<svg width="35" height="35" viewBox="0 0 35 35" fill="none" xmlns="http://www.w3.org/2000/svg">
<path d="M2.55212 14.5833V20.4166C2.55212 24.5422 2.55212 26.6043 3.834 27.8862C4.15046 28.2026 4.51504 28.4403 4.94671 28.6212C4.93695 28.5561 4.92771 28.491 4.919 28.4258C4.73962 27.087 4.73962 25.4172 4.73962 23.4776V11.5237C4.73962 9.58409 4.73962 7.91284 4.919 6.57554L4.94817 6.38013C4.53145 6.54833 4.15262 6.79824 3.834 7.11513C2.55212 8.397 2.55212 10.4591 2.55212 14.5833ZM31.7188 14.5833V20.4166C31.7188 24.5422 31.7188 26.6043 30.4369 27.8862C30.1205 28.2026 29.7559 28.4403 29.3242 28.6212L29.3519 28.4258C29.5313 27.087 29.5313 25.4172 29.5313 23.4776V11.5237C29.5313 9.58409 29.5313 7.91284 29.3519 6.57554C29.3427 6.51033 29.333 6.44519 29.3227 6.38013C29.7559 6.5595 30.1205 6.79867 30.4369 7.11513C31.7188 8.397 31.7188 10.4591 31.7188 14.5833Z" fill="#983D42"/>
<path fill-rule="evenodd" clip-rule="evenodd" d="M8.209 4.1985C6.92712 5.47892 6.92712 7.54246 6.92712 11.6666V23.3333C6.92712 27.4575 6.92712 29.521 8.209 30.8014C9.48942 32.0833 11.553 32.0833 15.6771 32.0833H18.5938C22.718 32.0833 24.7815 32.0833 26.0619 30.8014C27.3438 29.521 27.3438 27.4575 27.3438 23.3333V11.6666C27.3438 7.54246 27.3438 5.47892 26.0619 4.1985C24.7815 2.91663 22.718 2.91663 18.5938 2.91663H15.6771C11.553 2.91663 9.48942 2.91663 8.209 4.1985ZM11.6667 24.7916C11.6667 24.5015 11.7819 24.2233 11.9871 24.0182C12.1922 23.8131 12.4704 23.6979 12.7605 23.6979H17.1355C17.4255 23.6979 17.7037 23.8131 17.9089 24.0182C18.114 24.2233 18.2292 24.5015 18.2292 24.7916C18.2292 25.0817 18.114 25.3599 17.9089 25.565C17.7037 25.7701 17.4255 25.8854 17.1355 25.8854H12.7605C12.4704 25.8854 12.1922 25.7701 11.9871 25.565C11.7819 25.3599 11.6667 25.0817 11.6667 24.7916ZM12.7605 17.8645C12.4704 17.8645 12.1922 17.9798 11.9871 18.1849C11.7819 18.39 11.6667 18.6682 11.6667 18.9583C11.6667 19.2484 11.7819 19.5266 11.9871 19.7317C12.1922 19.9368 12.4704 20.052 12.7605 20.052H21.5105C21.8005 20.052 22.0787 19.9368 22.2839 19.7317C22.489 19.5266 22.6042 19.2484 22.6042 18.9583C22.6042 18.6682 22.489 18.39 22.2839 18.1849C22.0787 17.9798 21.8005 17.8645 21.5105 17.8645H12.7605ZM11.6667 13.125C11.6667 12.8349 11.7819 12.5567 11.9871 12.3516C12.1922 12.1464 12.4704 12.0312 12.7605 12.0312H21.5105C21.8005 12.0312 22.0787 12.1464 22.2839 12.3516C22.489 12.5567 22.6042 12.8349 22.6042 13.125C22.6042 13.415 22.489 13.6932 22.2839 13.8984C22.0787 14.1035 21.8005 14.2187 21.5105 14.2187H12.7605C12.4704 14.2187 12.1922 14.1035 11.9871 13.8984C11.7819 13.6932 11.6667 13.415 11.6667 13.125Z" fill="#983D42"/>
</svg>
