<svg width="23" height="23" viewBox="0 0 23 23" fill="none" xmlns="http://www.w3.org/2000/svg">
<path d="M18.7188 3.9375H4.28125C3.64328 3.93818 3.03164 4.19192 2.58053 4.64303C2.12942 5.09414 1.87568 5.70578 1.875 6.34375V16.6562C1.87568 17.2942 2.12942 17.9059 2.58053 18.357C3.03164 18.8081 3.64328 19.0618 4.28125 19.0625H18.7188C19.3567 19.0618 19.9684 18.8081 20.4195 18.357C20.8706 17.9059 21.1243 17.2942 21.125 16.6562V6.34375C21.1243 5.70578 20.8706 5.09414 20.4195 4.64303C19.9684 4.19192 19.3567 3.93818 18.7188 3.9375ZM18.1095 7.9177L11.922 12.7302C11.8013 12.824 11.6528 12.8749 11.5 12.8749C11.3472 12.8749 11.1987 12.824 11.078 12.7302L4.89055 7.9177C4.81785 7.8628 4.75679 7.794 4.71091 7.71529C4.66503 7.63659 4.63525 7.54956 4.6233 7.45925C4.61135 7.36893 4.61747 7.27715 4.6413 7.18922C4.66513 7.1013 4.7062 7.01898 4.76211 6.94707C4.81803 6.87515 4.88768 6.81506 4.96702 6.7703C5.04636 6.72553 5.13381 6.69698 5.22428 6.6863C5.31475 6.67562 5.40644 6.68303 5.49402 6.7081C5.5816 6.73316 5.66333 6.77538 5.73445 6.8323L11.5 11.3165L17.2655 6.8323C17.4097 6.72343 17.5909 6.67568 17.77 6.69938C17.9491 6.72308 18.1117 6.81632 18.2226 6.95894C18.3335 7.10157 18.3838 7.28211 18.3626 7.46152C18.3414 7.64094 18.2505 7.80481 18.1095 7.9177Z" fill="white"/>
</svg>
