<svg width="25" height="24" viewBox="0 0 25 24" fill="none" xmlns="http://www.w3.org/2000/svg">
<g clip-path="url(#clip0_3_1873)">
<path d="M12.5 12C12.5 6.66827 20.5003 6.66827 20.5003 12C20.5003 17.3318 12.5 17.3318 12.5 12ZM4.49977 20.0003C4.49948 19.4749 4.60273 18.9547 4.80363 18.4693C5.00454 17.9839 5.29914 17.5428 5.67061 17.1714C6.04208 16.7999 6.48313 16.5053 6.96854 16.3044C7.45394 16.1035 7.97419 16.0002 8.49952 16.0005H12.4993V20.0003C12.4993 25.332 4.49902 25.332 4.49902 20.0003H4.49977ZM12.5 1.82118e-05V8.00027H16.4998C21.8315 8.00027 21.8315 1.82118e-05 16.4998 1.82118e-05H12.5ZM4.49977 3.99977C4.49948 4.52511 4.60273 5.04535 4.80363 5.53076C5.00454 6.01616 5.29914 6.45721 5.67061 6.82868C6.04208 7.20015 6.48313 7.49476 6.96854 7.69566C7.45394 7.89656 7.97419 7.99981 8.49952 7.99952H12.4993V-0.000731788H8.49952C7.97419 -0.00102756 7.45394 0.102227 6.96854 0.303129C6.48313 0.50403 6.04208 0.798638 5.67061 1.17011C5.29914 1.54158 5.00454 1.98262 4.80363 2.46803C4.60273 2.95344 4.49948 3.47368 4.49977 3.99902V3.99977ZM4.49977 12C4.49948 12.5254 4.60273 13.0456 4.80363 13.531C5.00454 14.0164 5.29914 14.4575 5.67061 14.8289C6.04208 15.2004 6.48313 15.495 6.96854 15.6959C7.45394 15.8968 7.97419 16.0008 8.49952 16.0005H12.4993V7.99952H8.49952C7.97419 7.99922 7.45394 8.10248 6.96854 8.30338C6.48313 8.50428 6.04208 8.79889 5.67061 9.17036C5.29914 9.54183 5.00454 9.98287 4.80363 10.4683C4.60273 10.9537 4.49948 11.4739 4.49977 11.9993V12Z" fill="black"/>
</g>
<defs>
<clipPath id="clip0_3_1873">
<rect width="24" height="24" fill="white" transform="translate(0.5)"/>
</clipPath>
</defs>
</svg>
