<svg width="61" height="61" viewBox="0 0 61 61" fill="none" xmlns="http://www.w3.org/2000/svg">
<path d="M53.07 7.87662C51.207 6.01358 48.9652 5.08333 46.3422 5.08333H14.6044C11.9814 5.08333 9.73968 6.01358 7.87663 7.87662C6.01359 9.73967 5.08334 11.9814 5.08334 14.6044V46.3422C5.08334 48.9652 6.01359 51.207 7.87663 53.07C9.73968 54.933 11.9814 55.8633 14.6044 55.8633H22.0108C22.4938 55.8633 22.8572 55.8455 23.1012 55.8125C23.3851 55.7555 23.6413 55.6041 23.8281 55.3829C24.0696 55.1287 24.1916 54.7602 24.1916 54.2773L24.1738 52.0279C24.1636 50.5944 24.1586 49.4608 24.1586 48.6221L23.3961 48.7542C22.9131 48.8432 22.3031 48.8813 21.5635 48.8712C20.7926 48.8569 20.0241 48.7796 19.2658 48.6399C18.4586 48.4908 17.6987 48.151 17.0495 47.6486C16.3696 47.1343 15.8625 46.425 15.5957 45.6153L15.2653 44.8528C14.9868 44.2513 14.6369 43.6855 14.2232 43.1677C13.7504 42.55 13.2701 42.1332 12.7846 41.9121L12.5558 41.7469C12.3963 41.6326 12.2513 41.4995 12.1238 41.3504C12.002 41.212 11.9017 41.056 11.8264 40.8878C11.7603 40.7327 11.8162 40.6057 11.9916 40.5065C12.1695 40.4049 12.4872 40.3566 12.9523 40.3566L13.6132 40.4582C14.0529 40.5447 14.5993 40.809 15.2475 41.2487C15.9034 41.6959 16.4513 42.2837 16.8513 42.9694C17.3596 43.8717 17.9696 44.5605 18.6863 45.0358C19.4031 45.5085 20.1249 45.7475 20.8518 45.7475C21.5788 45.7475 22.2066 45.6915 22.7378 45.5822C23.2515 45.476 23.7506 45.3088 24.2246 45.0841C24.4229 43.6099 24.9617 42.4712 25.8437 41.6782C24.7009 41.5662 23.5683 41.3674 22.4556 41.0835C21.3698 40.7852 20.3256 40.3523 19.3472 39.7949C18.3235 39.2376 17.4193 38.4845 16.6861 37.5785C15.982 36.6966 15.4025 35.5401 14.9501 34.1092C14.5002 32.6757 14.274 31.021 14.274 29.1478C14.274 26.4816 15.1433 24.2119 16.8843 22.3362C16.071 20.3333 16.1472 18.084 17.1156 15.5957C17.7561 15.3949 18.7041 15.5448 19.9597 16.0405C21.2153 16.5361 22.1354 16.9605 22.72 17.3113C23.3046 17.6671 23.7722 17.9645 24.1255 18.206C26.1918 17.6309 28.3272 17.3419 30.4721 17.3469C32.6553 17.3469 34.77 17.6341 36.8211 18.206L38.0767 17.413C39.0425 16.8331 40.0612 16.3463 41.1191 15.9591C42.2883 15.5169 43.1778 15.3974 43.798 15.5957C44.7893 18.0865 44.8757 20.3333 44.0598 22.3387C45.8008 24.2119 46.6726 26.4816 46.6726 29.1504C46.6726 31.0236 46.4464 32.6833 45.994 34.1244C45.5441 35.5681 44.9595 36.7245 44.2428 37.5963C43.4966 38.4907 42.5887 39.2365 41.5664 39.7949C40.4989 40.3896 39.4619 40.8192 38.458 41.0835C37.3454 41.3683 36.2128 41.568 35.0699 41.6808C36.2137 42.672 36.7881 44.2352 36.7881 46.3727V54.2773C36.7881 54.6509 36.8415 54.9534 36.9533 55.1847C37.0047 55.2961 37.078 55.396 37.1688 55.4786C37.2596 55.5611 37.3661 55.6245 37.482 55.665C37.726 55.7515 37.9395 55.8074 38.1276 55.8277C38.3156 55.8531 38.585 55.8607 38.9358 55.8607H46.3422C48.9652 55.8607 51.207 54.9305 53.07 53.0675C54.9305 51.207 55.8633 48.9627 55.8633 46.3397V14.6044C55.8633 11.9814 54.933 9.73967 53.07 7.87662Z" fill="black"/>
</svg>
