<svg width="26" height="26" viewBox="0 0 26 26" fill="none" xmlns="http://www.w3.org/2000/svg">
<path d="M4.79541 22.1008L2.96973 1.625H23.0304L21.2022 22.0976L12.9879 24.375L4.79541 22.1008Z" fill="#E44F26"/>
<path d="M13 22.6346L19.6381 20.7943L21.1997 3.29956H13V22.6346Z" fill="#F1662A"/>
<path d="M13 10.8932H9.67687L9.44775 8.32162H13V5.81018H6.70312L6.76325 6.48456L7.37994 13.4046H13V10.8932ZM13 17.4151L12.9886 17.4184L10.192 16.6636L10.0133 14.6607H7.49206L7.84388 18.603L12.9886 20.0314L13 20.0281V17.4151Z" fill="#EBEBEB"/>
<path d="M12.9911 10.8932V13.4046H16.0835L15.7926 16.6619L12.9911 17.4176V20.0306L18.1399 18.603L18.1773 18.1789L18.7672 11.5676L18.8289 10.8932H12.9911ZM12.9911 5.81018V8.32162H19.0572L19.1076 7.75774L19.2222 6.48456L19.2823 5.81018H12.9911Z" fill="white"/>
</svg>
