<svg width="23" height="23" viewBox="0 0 23 23" fill="none" xmlns="http://www.w3.org/2000/svg">
<g clip-path="url(#clip0_1_1332)">
<path d="M17.6094 0H5.39062C2.41347 0 0 2.41347 0 5.39062V17.6094C0 20.5865 2.41347 23 5.39062 23H17.6094C20.5865 23 23 20.5865 23 17.6094V5.39062C23 2.41347 20.5865 0 17.6094 0Z" fill="#F0DB4F"/>
<path d="M6.04758 19.2204L7.80761 18.1553C8.14722 18.7573 8.45611 19.2667 9.19705 19.2667C9.90726 19.2667 10.355 18.9889 10.355 17.9083V10.5592H12.5165V17.9388C12.5165 20.1775 11.2042 21.1965 9.28968 21.1965C7.56063 21.1965 6.55699 20.301 6.04749 19.2203M13.6905 18.9888L15.4504 17.9699C15.9137 18.7265 16.5158 19.2823 17.581 19.2823C18.4767 19.2823 19.0477 18.8345 19.0477 18.2169C19.0477 17.4759 18.461 17.2133 17.4729 16.7812L16.9327 16.5495C15.3733 15.8857 14.3388 15.052 14.3388 13.2919C14.3388 11.6708 15.574 10.4356 17.5039 10.4356C18.878 10.4356 19.8661 10.9143 20.5762 12.1648L18.8933 13.2456C18.5227 12.5817 18.1215 12.3193 17.5039 12.3193C16.8709 12.3193 16.4694 12.7207 16.4694 13.2456C16.4694 13.894 16.8709 14.1565 17.7972 14.558L18.3375 14.7895C20.1747 15.577 21.2092 16.3797 21.2092 18.186C21.2092 20.1315 19.6807 21.1966 17.6274 21.1966C15.6203 21.1966 14.3234 20.2394 13.6905 18.9888Z" fill="#323330"/>
</g>
<defs>
<clipPath id="clip0_1_1332">
<rect width="23" height="23" fill="white"/>
</clipPath>
</defs>
</svg>
