<svg width="59" height="59" viewBox="0 0 59 59" fill="none" xmlns="http://www.w3.org/2000/svg">
<path d="M50.3221 4.91667H8.67791C8.20979 4.91017 7.74498 4.99594 7.31001 5.1691C6.87505 5.34226 6.47845 5.5994 6.14287 5.92584C5.8073 6.25229 5.53931 6.64164 5.35423 7.07167C5.16914 7.50169 5.07058 7.96396 5.06416 8.43209V50.5679C5.07058 51.036 5.16914 51.4983 5.35423 51.9283C5.53931 52.3584 5.8073 52.7477 6.14287 53.0742C6.47845 53.4006 6.87505 53.6577 7.31001 53.8309C7.74498 54.0041 8.20979 54.0898 8.67791 54.0833H50.3221C50.7902 54.0898 51.255 54.0041 51.69 53.8309C52.1249 53.6577 52.5215 53.4006 52.8571 53.0742C53.1927 52.7477 53.4607 52.3584 53.6458 51.9283C53.8309 51.4983 53.9294 51.036 53.9358 50.5679V8.43209C53.9294 7.96396 53.8309 7.50169 53.6458 7.07167C53.4607 6.64164 53.1927 6.25229 52.8571 5.92584C52.5215 5.5994 52.1249 5.34226 51.69 5.1691C51.255 4.99594 50.7902 4.91017 50.3221 4.91667ZM19.8879 46.0692H12.5129V23.9442H19.8879V46.0692ZM16.2004 20.8467C15.1833 20.8467 14.2079 20.4426 13.4887 19.7234C12.7695 19.0042 12.3654 18.0288 12.3654 17.0117C12.3654 15.9946 12.7695 15.0191 13.4887 14.2999C14.2079 13.5807 15.1833 13.1767 16.2004 13.1767C16.7405 13.1154 17.2874 13.1689 17.8054 13.3337C18.3234 13.4985 18.8007 13.7708 19.2061 14.1329C19.6115 14.4949 19.9359 14.9385 20.158 15.4346C20.3801 15.9307 20.4949 16.4681 20.4949 17.0117C20.4949 17.5552 20.3801 18.0926 20.158 18.5887C19.9359 19.0848 19.6115 19.5284 19.2061 19.8905C18.8007 20.2525 18.3234 20.5248 17.8054 20.6896C17.2874 20.8544 16.7405 20.9079 16.2004 20.8467ZM46.4871 46.0692H39.1121V34.1954C39.1121 31.2208 38.055 29.2788 35.3754 29.2788C34.5461 29.2848 33.7386 29.5449 33.0617 30.024C32.3848 30.5032 31.871 31.1782 31.5896 31.9583C31.3972 32.5361 31.3138 33.1447 31.3437 33.7529V46.0446H23.9687V23.9196H31.3437V27.0417C32.0137 25.8791 32.9881 24.9214 34.1621 24.2716C35.336 23.6218 36.665 23.3046 38.0058 23.3542C42.9225 23.3542 46.4871 26.5254 46.4871 33.335V46.0692Z" fill="black"/>
</svg>
