<svg width="25" height="25" viewBox="0 0 25 25" fill="none" xmlns="http://www.w3.org/2000/svg">
<g clip-path="url(#clip0_1_1354)">
<path d="M12.3941 0.00708008C6.06289 0.00708008 6.4582 2.76345 6.4582 2.76345L6.46524 5.61914H12.507V6.47649H4.06553C4.06553 6.47649 0.0141602 6.01522 0.0141602 12.4285C0.0141602 18.8419 3.55029 18.6144 3.55029 18.6144H5.66065V15.6384C5.66065 15.6384 5.54688 12.0884 9.14033 12.0884H15.1327C15.1327 12.0884 18.4994 12.143 18.4994 8.82179V3.33041C18.4994 3.33041 19.0107 0.00708008 12.3941 0.00708008ZM9.0627 1.92747C9.20547 1.92734 9.34686 1.95548 9.47879 2.01027C9.61072 2.06506 9.73059 2.14543 9.83155 2.24678C9.9325 2.34813 10.0126 2.46847 10.0671 2.60092C10.1217 2.73337 10.1497 2.87532 10.1496 3.01865C10.1497 3.16198 10.1217 3.30393 10.0671 3.43638C10.0126 3.56882 9.9325 3.68916 9.83155 3.79051C9.73059 3.89187 9.61072 3.97224 9.47879 4.02703C9.34686 4.08182 9.20547 4.10995 9.0627 4.10982C8.91992 4.10995 8.77853 4.08182 8.6466 4.02703C8.51467 3.97224 8.3948 3.89187 8.29385 3.79051C8.19289 3.68916 8.11283 3.56882 8.05826 3.43638C8.00368 3.30393 7.97565 3.16198 7.97578 3.01865C7.97565 2.87532 8.00368 2.73337 8.05826 2.60092C8.11283 2.46847 8.19289 2.34813 8.29385 2.24678C8.3948 2.14543 8.51467 2.06506 8.6466 2.01027C8.77853 1.95548 8.91992 1.92734 9.0627 1.92747Z" fill="url(#paint0_linear_1_1354)"/>
<path d="M12.5739 24.9143C18.9051 24.9143 18.5098 22.1579 18.5098 22.1579L18.5028 19.3024H12.4609V18.445H20.9024C20.9024 18.445 24.9538 18.9063 24.9538 12.4928C24.9538 6.07952 21.4176 6.30697 21.4176 6.30697H19.3073V9.28295C19.3073 9.28295 19.421 12.8329 15.8276 12.8329H9.83521C9.83521 12.8329 6.46851 12.7783 6.46851 16.0996V21.5911C6.46851 21.5911 5.95728 24.9143 12.5738 24.9143H12.5739ZM15.9053 22.9941C15.7626 22.9943 15.6212 22.9661 15.4892 22.9113C15.3573 22.8565 15.2374 22.7762 15.1365 22.6748C15.0355 22.5735 14.9555 22.4531 14.9009 22.3207C14.8463 22.1882 14.8183 22.0463 14.8184 21.9029C14.8183 21.7596 14.8463 21.6176 14.9009 21.4852C14.9554 21.3527 15.0355 21.2324 15.1364 21.131C15.2374 21.0297 15.3573 20.9493 15.4892 20.8945C15.6211 20.8397 15.7625 20.8115 15.9053 20.8117C16.0481 20.8115 16.1895 20.8397 16.3214 20.8945C16.4533 20.9493 16.5732 21.0296 16.6742 21.131C16.7751 21.2323 16.8552 21.3527 16.9098 21.4851C16.9643 21.6176 16.9924 21.7595 16.9922 21.9028C16.9924 22.0462 16.9643 22.1881 16.9098 22.3206C16.8552 22.453 16.7751 22.5734 16.6742 22.6747C16.5732 22.7761 16.4533 22.8564 16.3214 22.9112C16.1895 22.966 16.0481 22.9943 15.9053 22.9941Z" fill="url(#paint1_linear_1_1354)"/>
</g>
<defs>
<linearGradient id="paint0_linear_1_1354" x1="239.683" y1="224.033" x2="1480.41" y2="1447.58" gradientUnits="userSpaceOnUse">
<stop stop-color="#387EB8"/>
<stop offset="1" stop-color="#366994"/>
</linearGradient>
<linearGradient id="paint1_linear_1_1354" x1="360.22" y1="389.247" x2="1692.37" y2="1643.65" gradientUnits="userSpaceOnUse">
<stop stop-color="#FFE052"/>
<stop offset="1" stop-color="#FFC331"/>
</linearGradient>
<clipPath id="clip0_1_1354">
<rect width="25" height="25" fill="white"/>
</clipPath>
</defs>
</svg>
