<svg width="26" height="26" viewBox="0 0 26 26" fill="none" xmlns="http://www.w3.org/2000/svg">
<g clip-path="url(#clip0_8_1969)">
<path d="M14.6656 13C14.6656 17.0381 11.3831 20.3125 7.332 20.3125C6.37043 20.3138 5.41802 20.1257 4.52915 19.7589C3.64029 19.3921 2.83237 18.8538 2.15153 18.1748C1.47069 17.4957 0.930263 16.6893 0.561103 15.8014C0.191942 14.9135 0.00127954 13.9616 0 13C0 8.96026 3.2825 5.68751 7.332 5.68751C8.29371 5.68601 9.24629 5.87398 10.1353 6.24068C11.0244 6.60738 11.8325 7.14562 12.5135 7.82467C13.1945 8.50372 13.7351 9.31028 14.1044 10.1983C14.4736 11.0863 14.6643 12.0383 14.6656 13ZM22.7094 13C22.7094 16.8025 21.0681 19.8835 19.0434 19.8835C17.0186 19.8835 15.3774 16.8009 15.3774 13C15.3774 9.19751 17.0186 6.11651 19.0434 6.11651C21.0681 6.11651 22.7094 9.19913 22.7094 13ZM26 13C26 16.406 25.4231 19.1669 24.7098 19.1669C23.998 19.1669 23.4211 16.4044 23.4211 13C23.4211 9.59401 23.998 6.83313 24.7114 6.83313C25.4231 6.83313 26 9.59401 26 13Z" fill="black"/>
</g>
<defs>
<clipPath id="clip0_8_1969">
<rect width="26" height="26" fill="white"/>
</clipPath>
</defs>
</svg>
