<svg width="26" height="26" viewBox="0 0 26 26" fill="none" xmlns="http://www.w3.org/2000/svg">
<mask id="mask0_1_1407" style="mask-type:luminance" maskUnits="userSpaceOnUse" x="0" y="4" width="26" height="18">
<path d="M13 19.5C18.9832 19.5 23.8333 13 23.8333 13C23.8333 13 18.9832 6.5 13 6.5C7.01671 6.5 2.16663 13 2.16663 13C2.16663 13 7.01671 19.5 13 19.5Z" fill="white" stroke="white" stroke-width="4" stroke-linejoin="round"/>
<path d="M13 15.7083C13.7183 15.7083 14.4071 15.423 14.915 14.915C15.423 14.4071 15.7083 13.7183 15.7083 13C15.7083 12.2817 15.423 11.5928 14.915 11.0849C14.4071 10.577 13.7183 10.2916 13 10.2916C12.2817 10.2916 11.5928 10.577 11.0849 11.0849C10.577 11.5928 10.2916 12.2817 10.2916 13C10.2916 13.7183 10.577 14.4071 11.0849 14.915C11.5928 15.423 12.2817 15.7083 13 15.7083Z" fill="black" stroke="black" stroke-width="4" stroke-linejoin="round"/>
</mask>
<g mask="url(#mask0_1_1407)">
<path d="M0 0H26V26H0V0Z" fill="black"/>
</g>
</svg>
