<svg width="458" height="88" viewBox="0 0 458 88" fill="none" xmlns="http://www.w3.org/2000/svg">
<circle cx="40" cy="48.5" r="39.5" fill="white"/>
<path d="M31.972 53.592V62.808C31.62 62.904 31.06 63 30.292 63.096C29.556 63.192 28.82 63.24 28.084 63.24C27.348 63.24 26.692 63.176 26.116 63.048C25.572 62.952 25.108 62.76 24.724 62.472C24.372 62.184 24.1 61.784 23.908 61.272C23.716 60.76 23.62 60.088 23.62 59.256V36.648C23.62 35.976 23.796 35.464 24.148 35.112C24.532 34.728 25.044 34.424 25.684 34.2C26.772 33.816 28.036 33.544 29.476 33.384C30.916 33.192 32.452 33.096 34.084 33.096C38.5 33.096 41.828 34.024 44.068 35.88C46.308 37.736 47.428 40.248 47.428 43.416C47.428 45.4 46.916 47.096 45.892 48.504C44.868 49.912 43.652 51 42.244 51.768C43.396 53.336 44.532 54.808 45.652 56.184C46.772 57.56 47.652 58.808 48.292 59.928C47.972 61.048 47.38 61.912 46.516 62.52C45.684 63.096 44.74 63.384 43.684 63.384C42.98 63.384 42.372 63.304 41.86 63.144C41.348 62.984 40.9 62.76 40.516 62.472C40.132 62.184 39.78 61.832 39.46 61.416C39.14 61 38.836 60.552 38.548 60.072L34.516 53.592H31.972ZM34.996 47.208C36.212 47.208 37.172 46.904 37.876 46.296C38.58 45.656 38.932 44.728 38.932 43.512C38.932 42.296 38.532 41.384 37.732 40.776C36.964 40.136 35.732 39.816 34.036 39.816C33.556 39.816 33.172 39.832 32.884 39.864C32.596 39.896 32.276 39.944 31.924 40.008V47.208H34.996Z" fill="#983D42"/>
<circle cx="55" cy="51.5" r="3.5" fill="#983D42"/>
<path d="M145.156 50.952C144.836 51.048 144.324 51.144 143.62 51.24C142.948 51.336 142.244 51.384 141.508 51.384C140.804 51.384 140.164 51.336 139.588 51.24C139.044 51.144 138.58 50.952 138.196 50.664C137.812 50.376 137.508 49.992 137.284 49.512C137.092 49 136.996 48.344 136.996 47.544V33.144C136.996 32.408 137.124 31.784 137.38 31.272C137.668 30.728 138.068 30.248 138.58 29.832C139.092 29.416 139.716 29.048 140.452 28.728C141.22 28.376 142.036 28.072 142.9 27.816C143.764 27.56 144.66 27.368 145.588 27.24C146.516 27.08 147.444 27 148.372 27C149.908 27 151.124 27.304 152.02 27.912C152.916 28.488 153.364 29.448 153.364 30.792C153.364 31.24 153.3 31.688 153.172 32.136C153.044 32.552 152.884 32.936 152.692 33.288C152.02 33.288 151.332 33.32 150.628 33.384C149.924 33.448 149.236 33.544 148.564 33.672C147.892 33.8 147.252 33.944 146.644 34.104C146.068 34.232 145.572 34.392 145.156 34.584V50.952ZM166.011 45.816C166.555 45.816 167.147 45.768 167.787 45.672C168.459 45.544 168.955 45.384 169.275 45.192V41.352L165.819 41.64C164.923 41.704 164.187 41.896 163.611 42.216C163.035 42.536 162.747 43.016 162.747 43.656C162.747 44.296 162.987 44.824 163.467 45.24C163.979 45.624 164.827 45.816 166.011 45.816ZM165.627 26.952C167.355 26.952 168.923 27.128 170.331 27.48C171.771 27.832 172.987 28.376 173.979 29.112C175.003 29.816 175.787 30.728 176.331 31.848C176.875 32.936 177.147 34.232 177.147 35.736V46.488C177.147 47.32 176.907 48.008 176.427 48.552C175.979 49.064 175.435 49.512 174.795 49.896C172.715 51.144 169.787 51.768 166.011 51.768C164.315 51.768 162.779 51.608 161.403 51.288C160.059 50.968 158.891 50.488 157.899 49.848C156.939 49.208 156.187 48.392 155.643 47.4C155.131 46.408 154.875 45.256 154.875 43.944C154.875 41.736 155.531 40.04 156.843 38.856C158.155 37.672 160.187 36.936 162.939 36.648L169.227 35.976V35.64C169.227 34.712 168.811 34.056 167.979 33.672C167.179 33.256 166.011 33.048 164.475 33.048C163.259 33.048 162.075 33.176 160.923 33.432C159.771 33.688 158.731 34.008 157.803 34.392C157.387 34.104 157.035 33.672 156.747 33.096C156.459 32.488 156.315 31.864 156.315 31.224C156.315 30.392 156.507 29.736 156.891 29.256C157.307 28.744 157.931 28.312 158.763 27.96C159.691 27.608 160.779 27.352 162.027 27.192C163.307 27.032 164.507 26.952 165.627 26.952ZM182.233 27.672C182.233 26.04 182.505 24.648 183.049 23.496C183.625 22.312 184.393 21.352 185.353 20.616C186.313 19.848 187.433 19.288 188.713 18.936C190.025 18.584 191.417 18.408 192.889 18.408C195.257 18.408 197.001 18.728 198.121 19.368C199.241 19.976 199.801 21.032 199.801 22.536C199.801 23.176 199.657 23.752 199.369 24.264C199.113 24.776 198.825 25.16 198.505 25.416C197.897 25.256 197.257 25.128 196.585 25.032C195.945 24.904 195.193 24.84 194.329 24.84C192.953 24.84 191.881 25.08 191.113 25.56C190.345 26.008 189.961 26.808 189.961 27.96V29.496H197.833C198.025 29.848 198.201 30.296 198.361 30.84C198.553 31.352 198.649 31.928 198.649 32.568C198.649 33.688 198.393 34.504 197.881 35.016C197.401 35.496 196.745 35.736 195.913 35.736H190.393V50.952C190.073 51.048 189.561 51.144 188.857 51.24C188.185 51.336 187.481 51.384 186.745 51.384C186.041 51.384 185.401 51.336 184.825 51.24C184.281 51.144 183.817 50.952 183.433 50.664C183.049 50.376 182.745 49.992 182.521 49.512C182.329 49 182.233 48.344 182.233 47.544V27.672ZM211.081 50.952C210.729 51.016 210.201 51.096 209.497 51.192C208.825 51.32 208.137 51.384 207.433 51.384C206.729 51.384 206.089 51.336 205.513 51.24C204.969 51.144 204.505 50.952 204.121 50.664C203.737 50.376 203.433 49.992 203.209 49.512C203.017 49 202.921 48.344 202.921 47.544V19.704C203.273 19.64 203.785 19.56 204.457 19.464C205.161 19.336 205.865 19.272 206.569 19.272C207.273 19.272 207.897 19.32 208.441 19.416C209.017 19.512 209.497 19.704 209.881 19.992C210.265 20.28 210.553 20.68 210.745 21.192C210.969 21.672 211.081 22.312 211.081 23.112V50.952ZM216.023 21.192C216.023 19.976 216.423 18.952 217.223 18.12C218.055 17.288 219.143 16.872 220.487 16.872C221.831 16.872 222.903 17.288 223.703 18.12C224.535 18.952 224.951 19.976 224.951 21.192C224.951 22.408 224.535 23.432 223.703 24.264C222.903 25.096 221.831 25.512 220.487 25.512C219.143 25.512 218.055 25.096 217.223 24.264C216.423 23.432 216.023 22.408 216.023 21.192ZM224.567 50.952C224.215 51.016 223.687 51.096 222.983 51.192C222.311 51.32 221.623 51.384 220.919 51.384C220.215 51.384 219.575 51.336 218.999 51.24C218.455 51.144 217.991 50.952 217.607 50.664C217.223 50.376 216.919 49.992 216.695 49.512C216.503 49 216.407 48.344 216.407 47.544V28.008C216.759 27.944 217.271 27.864 217.943 27.768C218.647 27.64 219.351 27.576 220.055 27.576C220.759 27.576 221.383 27.624 221.927 27.72C222.503 27.816 222.983 28.008 223.367 28.296C223.751 28.584 224.039 28.984 224.231 29.496C224.455 29.976 224.567 30.616 224.567 31.416V50.952ZM249.442 44.04C249.442 46.472 248.53 48.376 246.706 49.752C244.882 51.128 242.194 51.816 238.642 51.816C237.298 51.816 236.05 51.72 234.898 51.528C233.746 51.336 232.754 51.048 231.922 50.664C231.122 50.248 230.482 49.736 230.002 49.128C229.554 48.52 229.33 47.8 229.33 46.968C229.33 46.2 229.49 45.56 229.81 45.048C230.13 44.504 230.514 44.056 230.962 43.704C231.89 44.216 232.946 44.68 234.13 45.096C235.346 45.48 236.738 45.672 238.306 45.672C239.298 45.672 240.05 45.528 240.562 45.24C241.106 44.952 241.378 44.568 241.378 44.088C241.378 43.64 241.186 43.288 240.802 43.032C240.418 42.776 239.778 42.568 238.882 42.408L237.442 42.12C234.658 41.576 232.578 40.728 231.202 39.576C229.858 38.392 229.186 36.712 229.186 34.536C229.186 33.352 229.442 32.28 229.954 31.32C230.466 30.36 231.186 29.56 232.114 28.92C233.042 28.28 234.146 27.784 235.426 27.432C236.738 27.08 238.178 26.904 239.746 26.904C240.93 26.904 242.034 27 243.058 27.192C244.114 27.352 245.026 27.608 245.794 27.96C246.562 28.312 247.17 28.776 247.618 29.352C248.066 29.896 248.29 30.552 248.29 31.32C248.29 32.056 248.146 32.696 247.858 33.24C247.602 33.752 247.266 34.184 246.85 34.536C246.594 34.376 246.21 34.216 245.698 34.056C245.186 33.864 244.626 33.704 244.018 33.576C243.41 33.416 242.786 33.288 242.146 33.192C241.538 33.096 240.978 33.048 240.466 33.048C239.41 33.048 238.594 33.176 238.018 33.432C237.442 33.656 237.154 34.024 237.154 34.536C237.154 34.888 237.314 35.176 237.634 35.4C237.954 35.624 238.562 35.832 239.458 36.024L240.946 36.36C244.018 37.064 246.194 38.04 247.474 39.288C248.786 40.504 249.442 42.088 249.442 44.04ZM253.387 28.008C253.707 27.912 254.203 27.816 254.875 27.72C255.579 27.624 256.299 27.576 257.035 27.576C257.739 27.576 258.363 27.624 258.907 27.72C259.483 27.816 259.963 28.008 260.347 28.296C260.731 28.584 261.019 28.984 261.211 29.496C261.435 29.976 261.547 30.616 261.547 31.416V41.736C261.547 43.048 261.867 43.992 262.507 44.568C263.147 45.112 264.075 45.384 265.291 45.384C266.027 45.384 266.619 45.32 267.067 45.192C267.547 45.064 267.915 44.936 268.171 44.808V28.008C268.491 27.912 268.987 27.816 269.659 27.72C270.363 27.624 271.083 27.576 271.819 27.576C272.523 27.576 273.147 27.624 273.691 27.72C274.267 27.816 274.747 28.008 275.131 28.296C275.515 28.584 275.803 28.984 275.995 29.496C276.219 29.976 276.331 30.616 276.331 31.416V46.008C276.331 47.608 275.659 48.808 274.315 49.608C273.195 50.312 271.851 50.84 270.283 51.192C268.747 51.576 267.067 51.768 265.243 51.768C263.515 51.768 261.915 51.576 260.443 51.192C259.003 50.808 257.755 50.216 256.699 49.416C255.643 48.616 254.827 47.592 254.251 46.344C253.675 45.064 253.387 43.528 253.387 41.736V28.008ZM301.004 44.04C301.004 46.472 300.092 48.376 298.268 49.752C296.444 51.128 293.756 51.816 290.204 51.816C288.86 51.816 287.612 51.72 286.46 51.528C285.308 51.336 284.316 51.048 283.484 50.664C282.684 50.248 282.044 49.736 281.564 49.128C281.116 48.52 280.892 47.8 280.892 46.968C280.892 46.2 281.052 45.56 281.372 45.048C281.692 44.504 282.076 44.056 282.524 43.704C283.452 44.216 284.508 44.68 285.692 45.096C286.908 45.48 288.3 45.672 289.868 45.672C290.86 45.672 291.612 45.528 292.124 45.24C292.668 44.952 292.94 44.568 292.94 44.088C292.94 43.64 292.748 43.288 292.364 43.032C291.98 42.776 291.34 42.568 290.444 42.408L289.004 42.12C286.22 41.576 284.14 40.728 282.764 39.576C281.42 38.392 280.748 36.712 280.748 34.536C280.748 33.352 281.004 32.28 281.516 31.32C282.028 30.36 282.748 29.56 283.676 28.92C284.604 28.28 285.708 27.784 286.988 27.432C288.3 27.08 289.74 26.904 291.308 26.904C292.492 26.904 293.596 27 294.62 27.192C295.676 27.352 296.588 27.608 297.356 27.96C298.124 28.312 298.732 28.776 299.18 29.352C299.628 29.896 299.852 30.552 299.852 31.32C299.852 32.056 299.708 32.696 299.42 33.24C299.164 33.752 298.828 34.184 298.412 34.536C298.156 34.376 297.772 34.216 297.26 34.056C296.748 33.864 296.188 33.704 295.58 33.576C294.972 33.416 294.348 33.288 293.708 33.192C293.1 33.096 292.54 33.048 292.028 33.048C290.972 33.048 290.156 33.176 289.58 33.432C289.004 33.656 288.716 34.024 288.716 34.536C288.716 34.888 288.876 35.176 289.196 35.4C289.516 35.624 290.124 35.832 291.02 36.024L292.508 36.36C295.58 37.064 297.756 38.04 299.036 39.288C300.348 40.504 301.004 42.088 301.004 44.04ZM315.402 45.816C315.946 45.816 316.538 45.768 317.178 45.672C317.85 45.544 318.346 45.384 318.666 45.192V41.352L315.21 41.64C314.314 41.704 313.578 41.896 313.002 42.216C312.426 42.536 312.138 43.016 312.138 43.656C312.138 44.296 312.378 44.824 312.858 45.24C313.37 45.624 314.218 45.816 315.402 45.816ZM315.018 26.952C316.746 26.952 318.314 27.128 319.722 27.48C321.162 27.832 322.378 28.376 323.37 29.112C324.394 29.816 325.178 30.728 325.722 31.848C326.266 32.936 326.538 34.232 326.538 35.736V46.488C326.538 47.32 326.298 48.008 325.818 48.552C325.37 49.064 324.826 49.512 324.186 49.896C322.106 51.144 319.178 51.768 315.402 51.768C313.706 51.768 312.17 51.608 310.794 51.288C309.45 50.968 308.282 50.488 307.29 49.848C306.33 49.208 305.578 48.392 305.034 47.4C304.522 46.408 304.266 45.256 304.266 43.944C304.266 41.736 304.922 40.04 306.234 38.856C307.546 37.672 309.578 36.936 312.33 36.648L318.618 35.976V35.64C318.618 34.712 318.202 34.056 317.37 33.672C316.57 33.256 315.402 33.048 313.866 33.048C312.65 33.048 311.466 33.176 310.314 33.432C309.162 33.688 308.122 34.008 307.194 34.392C306.778 34.104 306.426 33.672 306.138 33.096C305.85 32.488 305.706 31.864 305.706 31.224C305.706 30.392 305.898 29.736 306.282 29.256C306.698 28.744 307.322 28.312 308.154 27.96C309.082 27.608 310.17 27.352 311.418 27.192C312.698 27.032 313.898 26.952 315.018 26.952ZM346.311 36.216C346.311 35.224 346.023 34.504 345.447 34.056C344.903 33.576 344.151 33.336 343.191 33.336C342.551 33.336 341.911 33.416 341.271 33.576C340.663 33.736 340.135 33.976 339.687 34.296V50.952C339.367 51.048 338.855 51.144 338.151 51.24C337.479 51.336 336.775 51.384 336.039 51.384C335.335 51.384 334.695 51.336 334.119 51.24C333.575 51.144 333.111 50.952 332.727 50.664C332.343 50.376 332.039 49.992 331.815 49.512C331.623 49 331.527 48.344 331.527 47.544V33.144C331.527 32.28 331.703 31.576 332.055 31.032C332.439 30.488 332.951 29.992 333.591 29.544C334.679 28.776 336.039 28.152 337.671 27.672C339.335 27.192 341.175 26.952 343.191 26.952C346.807 26.952 349.591 27.752 351.543 29.352C353.495 30.92 354.471 33.112 354.471 35.928V50.952C354.151 51.048 353.639 51.144 352.935 51.24C352.263 51.336 351.559 51.384 350.823 51.384C350.119 51.384 349.479 51.336 348.903 51.24C348.359 51.144 347.895 50.952 347.511 50.664C347.127 50.376 346.823 49.992 346.599 49.512C346.407 49 346.311 48.344 346.311 47.544V36.216ZM367.672 42.984C367.672 43.816 367.928 44.408 368.44 44.76C368.984 45.112 369.736 45.288 370.696 45.288C371.176 45.288 371.672 45.256 372.184 45.192C372.696 45.096 373.144 44.984 373.528 44.856C373.816 45.208 374.056 45.608 374.248 46.056C374.472 46.472 374.584 46.984 374.584 47.592C374.584 48.808 374.12 49.8 373.192 50.568C372.296 51.336 370.696 51.72 368.392 51.72C365.576 51.72 363.4 51.08 361.864 49.8C360.36 48.52 359.608 46.44 359.608 43.56V23.016C359.96 22.92 360.456 22.824 361.096 22.728C361.768 22.6 362.472 22.536 363.208 22.536C364.616 22.536 365.704 22.792 366.472 23.304C367.272 23.784 367.672 24.824 367.672 26.424V29.496H373.96C374.152 29.848 374.328 30.296 374.488 30.84C374.68 31.352 374.776 31.928 374.776 32.568C374.776 33.688 374.52 34.504 374.008 35.016C373.528 35.496 372.872 35.736 372.04 35.736H367.672V42.984ZM402.593 39.336C402.593 41.32 402.289 43.096 401.681 44.664C401.073 46.2 400.209 47.496 399.089 48.552C398.001 49.608 396.689 50.408 395.153 50.952C393.617 51.496 391.905 51.768 390.017 51.768C388.129 51.768 386.417 51.48 384.881 50.904C383.345 50.328 382.017 49.512 380.897 48.456C379.809 47.368 378.961 46.056 378.353 44.52C377.745 42.984 377.441 41.256 377.441 39.336C377.441 37.448 377.745 35.736 378.353 34.2C378.961 32.664 379.809 31.368 380.897 30.312C382.017 29.224 383.345 28.392 384.881 27.816C386.417 27.24 388.129 26.952 390.017 26.952C391.905 26.952 393.617 27.256 395.153 27.864C396.689 28.44 398.001 29.272 399.089 30.36C400.209 31.416 401.073 32.712 401.681 34.248C402.289 35.784 402.593 37.48 402.593 39.336ZM385.793 39.336C385.793 41.288 386.161 42.792 386.897 43.848C387.665 44.872 388.721 45.384 390.065 45.384C391.409 45.384 392.433 44.856 393.137 43.8C393.873 42.744 394.241 41.256 394.241 39.336C394.241 37.416 393.873 35.944 393.137 34.92C392.401 33.864 391.361 33.336 390.017 33.336C388.673 33.336 387.633 33.864 386.897 34.92C386.161 35.944 385.793 37.416 385.793 39.336ZM404.665 47.112C404.665 45.768 405.081 44.648 405.913 43.752C406.745 42.856 407.881 42.408 409.321 42.408C410.761 42.408 411.897 42.856 412.729 43.752C413.561 44.648 413.977 45.768 413.977 47.112C413.977 48.456 413.561 49.576 412.729 50.472C411.897 51.368 410.761 51.816 409.321 51.816C407.881 51.816 406.745 51.368 405.913 50.472C405.081 49.576 404.665 48.456 404.665 47.112ZM417.351 21.192C417.351 19.976 417.751 18.952 418.551 18.12C419.383 17.288 420.471 16.872 421.815 16.872C423.159 16.872 424.231 17.288 425.031 18.12C425.863 18.952 426.279 19.976 426.279 21.192C426.279 22.408 425.863 23.432 425.031 24.264C424.231 25.096 423.159 25.512 421.815 25.512C420.471 25.512 419.383 25.096 418.551 24.264C417.751 23.432 417.351 22.408 417.351 21.192ZM425.895 50.952C425.543 51.016 425.015 51.096 424.311 51.192C423.639 51.32 422.951 51.384 422.247 51.384C421.543 51.384 420.903 51.336 420.327 51.24C419.783 51.144 419.319 50.952 418.935 50.664C418.551 50.376 418.247 49.992 418.023 49.512C417.831 49 417.735 48.344 417.735 47.544V28.008C418.087 27.944 418.599 27.864 419.271 27.768C419.975 27.64 420.679 27.576 421.383 27.576C422.087 27.576 422.711 27.624 423.255 27.72C423.831 27.816 424.311 28.008 424.695 28.296C425.079 28.584 425.367 28.984 425.559 29.496C425.783 29.976 425.895 30.616 425.895 31.416V50.952ZM455.234 39.336C455.234 41.32 454.93 43.096 454.322 44.664C453.714 46.2 452.85 47.496 451.73 48.552C450.642 49.608 449.33 50.408 447.794 50.952C446.258 51.496 444.546 51.768 442.658 51.768C440.77 51.768 439.058 51.48 437.522 50.904C435.986 50.328 434.658 49.512 433.538 48.456C432.45 47.368 431.602 46.056 430.994 44.52C430.386 42.984 430.082 41.256 430.082 39.336C430.082 37.448 430.386 35.736 430.994 34.2C431.602 32.664 432.45 31.368 433.538 30.312C434.658 29.224 435.986 28.392 437.522 27.816C439.058 27.24 440.77 26.952 442.658 26.952C444.546 26.952 446.258 27.256 447.794 27.864C449.33 28.44 450.642 29.272 451.73 30.36C452.85 31.416 453.714 32.712 454.322 34.248C454.93 35.784 455.234 37.48 455.234 39.336ZM438.434 39.336C438.434 41.288 438.802 42.792 439.538 43.848C440.306 44.872 441.362 45.384 442.706 45.384C444.05 45.384 445.074 44.856 445.778 43.8C446.514 42.744 446.882 41.256 446.882 39.336C446.882 37.416 446.514 35.944 445.778 34.92C445.042 33.864 444.002 33.336 442.658 33.336C441.314 33.336 440.274 33.864 439.538 34.92C438.802 35.944 438.434 37.416 438.434 39.336Z" fill="white"/>
<path d="M143.38 73L140.06 67.3H137.86V73H136.04V59.06H140.54C141.593 59.06 142.48 59.24 143.2 59.6C143.933 59.96 144.48 60.4467 144.84 61.06C145.2 61.6733 145.38 62.3733 145.38 63.16C145.38 64.12 145.1 64.9667 144.54 65.7C143.993 66.4333 143.167 66.92 142.06 67.16L145.56 73H143.38ZM137.86 65.84H140.54C141.527 65.84 142.267 65.6 142.76 65.12C143.253 64.6267 143.5 63.9733 143.5 63.16C143.5 62.3333 143.253 61.6933 142.76 61.24C142.28 60.7867 141.54 60.56 140.54 60.56H137.86V65.84ZM147.528 67.48C147.528 66.36 147.755 65.38 148.208 64.54C148.661 63.6867 149.281 63.0267 150.068 62.56C150.868 62.0933 151.755 61.86 152.728 61.86C153.688 61.86 154.521 62.0667 155.228 62.48C155.935 62.8933 156.461 63.4133 156.808 64.04V62.04H158.648V73H156.808V70.96C156.448 71.6 155.908 72.1333 155.188 72.56C154.481 72.9733 153.655 73.18 152.708 73.18C151.735 73.18 150.855 72.94 150.068 72.46C149.281 71.98 148.661 71.3067 148.208 70.44C147.755 69.5733 147.528 68.5867 147.528 67.48ZM156.808 67.5C156.808 66.6733 156.641 65.9533 156.308 65.34C155.975 64.7267 155.521 64.26 154.948 63.94C154.388 63.6067 153.768 63.44 153.088 63.44C152.408 63.44 151.788 63.6 151.228 63.92C150.668 64.24 150.221 64.7067 149.888 65.32C149.555 65.9333 149.388 66.6533 149.388 67.48C149.388 68.32 149.555 69.0533 149.888 69.68C150.221 70.2933 150.668 70.7667 151.228 71.1C151.788 71.42 152.408 71.58 153.088 71.58C153.768 71.58 154.388 71.42 154.948 71.1C155.521 70.7667 155.975 70.2933 156.308 69.68C156.641 69.0533 156.808 68.3267 156.808 67.5ZM166.184 63.54H163.884V73H162.064V63.54H160.644V62.04H162.064V61.26C162.064 60.0333 162.377 59.14 163.004 58.58C163.644 58.0067 164.664 57.72 166.064 57.72V59.24C165.264 59.24 164.697 59.4 164.364 59.72C164.044 60.0267 163.884 60.54 163.884 61.26V62.04H166.184V63.54ZM170.126 58.2V73H168.306V58.2H170.126ZM174.168 60.26C173.821 60.26 173.528 60.14 173.288 59.9C173.048 59.66 172.928 59.3667 172.928 59.02C172.928 58.6733 173.048 58.38 173.288 58.14C173.528 57.9 173.821 57.78 174.168 57.78C174.501 57.78 174.781 57.9 175.008 58.14C175.248 58.38 175.368 58.6733 175.368 59.02C175.368 59.3667 175.248 59.66 175.008 59.9C174.781 60.14 174.501 60.26 174.168 60.26ZM175.048 62.04V73H173.228V62.04H175.048ZM178.429 59.06H180.449L178.529 63.6H177.249L178.429 59.06ZM186.404 73.18C185.564 73.18 184.811 73.04 184.144 72.76C183.478 72.4667 182.951 72.0667 182.564 71.56C182.178 71.04 181.964 70.4467 181.924 69.78H183.804C183.858 70.3267 184.111 70.7733 184.564 71.12C185.031 71.4667 185.638 71.64 186.384 71.64C187.078 71.64 187.624 71.4867 188.024 71.18C188.424 70.8733 188.624 70.4867 188.624 70.02C188.624 69.54 188.411 69.1867 187.984 68.96C187.558 68.72 186.898 68.4867 186.004 68.26C185.191 68.0467 184.524 67.8333 184.004 67.62C183.498 67.3933 183.058 67.0667 182.684 66.64C182.324 66.2 182.144 65.6267 182.144 64.92C182.144 64.36 182.311 63.8467 182.644 63.38C182.978 62.9133 183.451 62.5467 184.064 62.28C184.678 62 185.378 61.86 186.164 61.86C187.378 61.86 188.358 62.1667 189.104 62.78C189.851 63.3933 190.251 64.2333 190.304 65.3H188.484C188.444 64.7267 188.211 64.2667 187.784 63.92C187.371 63.5733 186.811 63.4 186.104 63.4C185.451 63.4 184.931 63.54 184.544 63.82C184.158 64.1 183.964 64.4667 183.964 64.92C183.964 65.28 184.078 65.58 184.304 65.82C184.544 66.0467 184.838 66.2333 185.184 66.38C185.544 66.5133 186.038 66.6667 186.664 66.84C187.451 67.0533 188.091 67.2667 188.584 67.48C189.078 67.68 189.498 67.9867 189.844 68.4C190.204 68.8133 190.391 69.3533 190.404 70.02C190.404 70.62 190.238 71.16 189.904 71.64C189.571 72.12 189.098 72.5 188.484 72.78C187.884 73.0467 187.191 73.18 186.404 73.18ZM207.626 63.14C207.626 64.3 207.226 65.2667 206.426 66.04C205.639 66.8 204.432 67.18 202.806 67.18H200.126V73H198.306V59.06H202.806C204.379 59.06 205.572 59.44 206.386 60.2C207.212 60.96 207.626 61.94 207.626 63.14ZM202.806 65.68C203.819 65.68 204.566 65.46 205.046 65.02C205.526 64.58 205.766 63.9533 205.766 63.14C205.766 61.42 204.779 60.56 202.806 60.56H200.126V65.68H202.806ZM219.888 67.1C219.888 67.4467 219.868 67.8133 219.828 68.2H211.068C211.134 69.28 211.501 70.1267 212.168 70.74C212.848 71.34 213.668 71.64 214.628 71.64C215.414 71.64 216.068 71.46 216.588 71.1C217.121 70.7267 217.494 70.2333 217.708 69.62H219.668C219.374 70.6733 218.788 71.5333 217.908 72.2C217.028 72.8533 215.934 73.18 214.628 73.18C213.588 73.18 212.654 72.9467 211.828 72.48C211.014 72.0133 210.374 71.3533 209.908 70.5C209.441 69.6333 209.208 68.6333 209.208 67.5C209.208 66.3667 209.434 65.3733 209.888 64.52C210.341 63.6667 210.974 63.0133 211.788 62.56C212.614 62.0933 213.561 61.86 214.628 61.86C215.668 61.86 216.588 62.0867 217.388 62.54C218.188 62.9933 218.801 63.62 219.228 64.42C219.668 65.2067 219.888 66.1 219.888 67.1ZM218.008 66.72C218.008 66.0267 217.854 65.4333 217.548 64.94C217.241 64.4333 216.821 64.0533 216.288 63.8C215.768 63.5333 215.188 63.4 214.548 63.4C213.628 63.4 212.841 63.6933 212.188 64.28C211.548 64.8667 211.181 65.68 211.088 66.72H218.008ZM224.11 63.82C224.43 63.1933 224.883 62.7067 225.47 62.36C226.07 62.0133 226.797 61.84 227.65 61.84V63.72H227.17C225.13 63.72 224.11 64.8267 224.11 67.04V73H222.29V62.04H224.11V63.82ZM233.631 73.18C232.791 73.18 232.038 73.04 231.371 72.76C230.704 72.4667 230.178 72.0667 229.791 71.56C229.404 71.04 229.191 70.4467 229.151 69.78H231.031C231.084 70.3267 231.338 70.7733 231.791 71.12C232.258 71.4667 232.864 71.64 233.611 71.64C234.304 71.64 234.851 71.4867 235.251 71.18C235.651 70.8733 235.851 70.4867 235.851 70.02C235.851 69.54 235.638 69.1867 235.211 68.96C234.784 68.72 234.124 68.4867 233.231 68.26C232.418 68.0467 231.751 67.8333 231.231 67.62C230.724 67.3933 230.284 67.0667 229.911 66.64C229.551 66.2 229.371 65.6267 229.371 64.92C229.371 64.36 229.538 63.8467 229.871 63.38C230.204 62.9133 230.678 62.5467 231.291 62.28C231.904 62 232.604 61.86 233.391 61.86C234.604 61.86 235.584 62.1667 236.331 62.78C237.078 63.3933 237.478 64.2333 237.531 65.3H235.711C235.671 64.7267 235.438 64.2667 235.011 63.92C234.598 63.5733 234.038 63.4 233.331 63.4C232.678 63.4 232.158 63.54 231.771 63.82C231.384 64.1 231.191 64.4667 231.191 64.92C231.191 65.28 231.304 65.58 231.531 65.82C231.771 66.0467 232.064 66.2333 232.411 66.38C232.771 66.5133 233.264 66.6667 233.891 66.84C234.678 67.0533 235.318 67.2667 235.811 67.48C236.304 67.68 236.724 67.9867 237.071 68.4C237.431 68.8133 237.618 69.3533 237.631 70.02C237.631 70.62 237.464 71.16 237.131 71.64C236.798 72.12 236.324 72.5 235.711 72.78C235.111 73.0467 234.418 73.18 233.631 73.18ZM244.98 73.18C243.953 73.18 243.02 72.9467 242.18 72.48C241.353 72.0133 240.7 71.3533 240.22 70.5C239.753 69.6333 239.52 68.6333 239.52 67.5C239.52 66.38 239.76 65.3933 240.24 64.54C240.733 63.6733 241.4 63.0133 242.24 62.56C243.08 62.0933 244.02 61.86 245.06 61.86C246.1 61.86 247.04 62.0933 247.88 62.56C248.72 63.0133 249.38 63.6667 249.86 64.52C250.353 65.3733 250.6 66.3667 250.6 67.5C250.6 68.6333 250.347 69.6333 249.84 70.5C249.347 71.3533 248.673 72.0133 247.82 72.48C246.967 72.9467 246.02 73.18 244.98 73.18ZM244.98 71.58C245.633 71.58 246.247 71.4267 246.82 71.12C247.393 70.8133 247.853 70.3533 248.2 69.74C248.56 69.1267 248.74 68.38 248.74 67.5C248.74 66.62 248.567 65.8733 248.22 65.26C247.873 64.6467 247.42 64.1933 246.86 63.9C246.3 63.5933 245.693 63.44 245.04 63.44C244.373 63.44 243.76 63.5933 243.2 63.9C242.653 64.1933 242.213 64.6467 241.88 65.26C241.547 65.8733 241.38 66.62 241.38 67.5C241.38 68.3933 241.54 69.1467 241.86 69.76C242.193 70.3733 242.633 70.8333 243.18 71.14C243.727 71.4333 244.327 71.58 244.98 71.58ZM258.333 61.84C259.666 61.84 260.746 62.2467 261.573 63.06C262.4 63.86 262.813 65.02 262.813 66.54V73H261.013V66.8C261.013 65.7067 260.74 64.8733 260.193 64.3C259.646 63.7133 258.9 63.42 257.953 63.42C256.993 63.42 256.226 63.72 255.653 64.32C255.093 64.92 254.813 65.7933 254.813 66.94V73H252.993V62.04H254.813V63.6C255.173 63.04 255.66 62.6067 256.273 62.3C256.9 61.9933 257.586 61.84 258.333 61.84ZM265.106 67.48C265.106 66.36 265.333 65.38 265.786 64.54C266.239 63.6867 266.859 63.0267 267.646 62.56C268.446 62.0933 269.333 61.86 270.306 61.86C271.266 61.86 272.099 62.0667 272.806 62.48C273.513 62.8933 274.039 63.4133 274.386 64.04V62.04H276.226V73H274.386V70.96C274.026 71.6 273.486 72.1333 272.766 72.56C272.059 72.9733 271.233 73.18 270.286 73.18C269.313 73.18 268.433 72.94 267.646 72.46C266.859 71.98 266.239 71.3067 265.786 70.44C265.333 69.5733 265.106 68.5867 265.106 67.48ZM274.386 67.5C274.386 66.6733 274.219 65.9533 273.886 65.34C273.553 64.7267 273.099 64.26 272.526 63.94C271.966 63.6067 271.346 63.44 270.666 63.44C269.986 63.44 269.366 63.6 268.806 63.92C268.246 64.24 267.799 64.7067 267.466 65.32C267.133 65.9333 266.966 66.6533 266.966 67.48C266.966 68.32 267.133 69.0533 267.466 69.68C267.799 70.2933 268.246 70.7667 268.806 71.1C269.366 71.42 269.986 71.58 270.666 71.58C271.346 71.58 271.966 71.42 272.526 71.1C273.099 70.7667 273.553 70.2933 273.886 69.68C274.219 69.0533 274.386 68.3267 274.386 67.5ZM281.122 58.2V73H279.302V58.2H281.122ZM298.876 63.14C298.876 64.3 298.476 65.2667 297.676 66.04C296.889 66.8 295.682 67.18 294.056 67.18H291.376V73H289.556V59.06H294.056C295.629 59.06 296.822 59.44 297.636 60.2C298.462 60.96 298.876 61.94 298.876 63.14ZM294.056 65.68C295.069 65.68 295.816 65.46 296.296 65.02C296.776 64.58 297.016 63.9533 297.016 63.14C297.016 61.42 296.029 60.56 294.056 60.56H291.376V65.68H294.056ZM305.918 73.18C304.891 73.18 303.958 72.9467 303.118 72.48C302.291 72.0133 301.638 71.3533 301.158 70.5C300.691 69.6333 300.458 68.6333 300.458 67.5C300.458 66.38 300.698 65.3933 301.178 64.54C301.671 63.6733 302.338 63.0133 303.178 62.56C304.018 62.0933 304.958 61.86 305.998 61.86C307.038 61.86 307.978 62.0933 308.818 62.56C309.658 63.0133 310.318 63.6667 310.798 64.52C311.291 65.3733 311.538 66.3667 311.538 67.5C311.538 68.6333 311.284 69.6333 310.778 70.5C310.284 71.3533 309.611 72.0133 308.758 72.48C307.904 72.9467 306.958 73.18 305.918 73.18ZM305.918 71.58C306.571 71.58 307.184 71.4267 307.758 71.12C308.331 70.8133 308.791 70.3533 309.138 69.74C309.498 69.1267 309.678 68.38 309.678 67.5C309.678 66.62 309.504 65.8733 309.158 65.26C308.811 64.6467 308.358 64.1933 307.798 63.9C307.238 63.5933 306.631 63.44 305.978 63.44C305.311 63.44 304.698 63.5933 304.138 63.9C303.591 64.1933 303.151 64.6467 302.818 65.26C302.484 65.8733 302.318 66.62 302.318 67.5C302.318 68.3933 302.478 69.1467 302.798 69.76C303.131 70.3733 303.571 70.8333 304.118 71.14C304.664 71.4333 305.264 71.58 305.918 71.58ZM315.751 63.82C316.071 63.1933 316.524 62.7067 317.111 62.36C317.711 62.0133 318.437 61.84 319.291 61.84V63.72H318.811C316.771 63.72 315.751 64.8267 315.751 67.04V73H313.931V62.04H315.751V63.82ZM323.612 63.54V70C323.612 70.5333 323.725 70.9133 323.952 71.14C324.178 71.3533 324.572 71.46 325.132 71.46H326.472V73H324.832C323.818 73 323.058 72.7667 322.552 72.3C322.045 71.8333 321.792 71.0667 321.792 70V63.54H320.372V62.04H321.792V59.28H323.612V62.04H326.472V63.54H323.612ZM333.137 63.54H330.837V73H329.017V63.54H327.597V62.04H329.017V61.26C329.017 60.0333 329.33 59.14 329.957 58.58C330.597 58.0067 331.617 57.72 333.017 57.72V59.24C332.217 59.24 331.65 59.4 331.317 59.72C330.997 60.0267 330.837 60.54 330.837 61.26V62.04H333.137V63.54ZM340.039 73.18C339.012 73.18 338.079 72.9467 337.239 72.48C336.412 72.0133 335.759 71.3533 335.279 70.5C334.812 69.6333 334.579 68.6333 334.579 67.5C334.579 66.38 334.819 65.3933 335.299 64.54C335.792 63.6733 336.459 63.0133 337.299 62.56C338.139 62.0933 339.079 61.86 340.119 61.86C341.159 61.86 342.099 62.0933 342.939 62.56C343.779 63.0133 344.439 63.6667 344.919 64.52C345.412 65.3733 345.659 66.3667 345.659 67.5C345.659 68.6333 345.405 69.6333 344.899 70.5C344.405 71.3533 343.732 72.0133 342.879 72.48C342.025 72.9467 341.079 73.18 340.039 73.18ZM340.039 71.58C340.692 71.58 341.305 71.4267 341.879 71.12C342.452 70.8133 342.912 70.3533 343.259 69.74C343.619 69.1267 343.799 68.38 343.799 67.5C343.799 66.62 343.625 65.8733 343.279 65.26C342.932 64.6467 342.479 64.1933 341.919 63.9C341.359 63.5933 340.752 63.44 340.099 63.44C339.432 63.44 338.819 63.5933 338.259 63.9C337.712 64.1933 337.272 64.6467 336.939 65.26C336.605 65.8733 336.439 66.62 336.439 67.5C336.439 68.3933 336.599 69.1467 336.919 69.76C337.252 70.3733 337.692 70.8333 338.239 71.14C338.785 71.4333 339.385 71.58 340.039 71.58ZM349.872 58.2V73H348.052V58.2H349.872ZM353.914 60.26C353.567 60.26 353.274 60.14 353.034 59.9C352.794 59.66 352.674 59.3667 352.674 59.02C352.674 58.6733 352.794 58.38 353.034 58.14C353.274 57.9 353.567 57.78 353.914 57.78C354.247 57.78 354.527 57.9 354.754 58.14C354.994 58.38 355.114 58.6733 355.114 59.02C355.114 59.3667 354.994 59.66 354.754 59.9C354.527 60.14 354.247 60.26 353.914 60.26ZM354.794 62.04V73H352.974V62.04H354.794ZM362.675 73.18C361.649 73.18 360.715 72.9467 359.875 72.48C359.049 72.0133 358.395 71.3533 357.915 70.5C357.449 69.6333 357.215 68.6333 357.215 67.5C357.215 66.38 357.455 65.3933 357.935 64.54C358.429 63.6733 359.095 63.0133 359.935 62.56C360.775 62.0933 361.715 61.86 362.755 61.86C363.795 61.86 364.735 62.0933 365.575 62.56C366.415 63.0133 367.075 63.6667 367.555 64.52C368.049 65.3733 368.295 66.3667 368.295 67.5C368.295 68.6333 368.042 69.6333 367.535 70.5C367.042 71.3533 366.369 72.0133 365.515 72.48C364.662 72.9467 363.715 73.18 362.675 73.18ZM362.675 71.58C363.329 71.58 363.942 71.4267 364.515 71.12C365.089 70.8133 365.549 70.3533 365.895 69.74C366.255 69.1267 366.435 68.38 366.435 67.5C366.435 66.62 366.262 65.8733 365.915 65.26C365.569 64.6467 365.115 64.1933 364.555 63.9C363.995 63.5933 363.389 63.44 362.735 63.44C362.069 63.44 361.455 63.5933 360.895 63.9C360.349 64.1933 359.909 64.6467 359.575 65.26C359.242 65.8733 359.075 66.62 359.075 67.5C359.075 68.3933 359.235 69.1467 359.555 69.76C359.889 70.3733 360.329 70.8333 360.875 71.14C361.422 71.4333 362.022 71.58 362.675 71.58ZM393.54 59.06L389.5 73H387.46L384.22 61.78L380.86 73L378.84 73.02L374.94 59.06H376.88L379.92 70.88L383.28 59.06H385.32L388.52 70.84L391.58 59.06H393.54ZM405.532 67.1C405.532 67.4467 405.512 67.8133 405.472 68.2H396.712C396.779 69.28 397.146 70.1267 397.812 70.74C398.492 71.34 399.312 71.64 400.272 71.64C401.059 71.64 401.712 71.46 402.232 71.1C402.766 70.7267 403.139 70.2333 403.352 69.62H405.312C405.019 70.6733 404.432 71.5333 403.552 72.2C402.672 72.8533 401.579 73.18 400.272 73.18C399.232 73.18 398.299 72.9467 397.472 72.48C396.659 72.0133 396.019 71.3533 395.552 70.5C395.086 69.6333 394.852 68.6333 394.852 67.5C394.852 66.3667 395.079 65.3733 395.532 64.52C395.986 63.6667 396.619 63.0133 397.432 62.56C398.259 62.0933 399.206 61.86 400.272 61.86C401.312 61.86 402.232 62.0867 403.032 62.54C403.832 62.9933 404.446 63.62 404.872 64.42C405.312 65.2067 405.532 66.1 405.532 67.1ZM403.652 66.72C403.652 66.0267 403.499 65.4333 403.192 64.94C402.886 64.4333 402.466 64.0533 401.932 63.8C401.412 63.5333 400.832 63.4 400.192 63.4C399.272 63.4 398.486 63.6933 397.832 64.28C397.192 64.8667 396.826 65.68 396.732 66.72H403.652ZM409.755 64.08C410.128 63.4267 410.675 62.8933 411.395 62.48C412.115 62.0667 412.935 61.86 413.855 61.86C414.841 61.86 415.728 62.0933 416.515 62.56C417.301 63.0267 417.921 63.6867 418.375 64.54C418.828 65.38 419.055 66.36 419.055 67.48C419.055 68.5867 418.828 69.5733 418.375 70.44C417.921 71.3067 417.295 71.98 416.495 72.46C415.708 72.94 414.828 73.18 413.855 73.18C412.908 73.18 412.075 72.9733 411.355 72.56C410.648 72.1467 410.115 71.62 409.755 70.98V73H407.935V58.2H409.755V64.08ZM417.195 67.48C417.195 66.6533 417.028 65.9333 416.695 65.32C416.361 64.7067 415.908 64.24 415.335 63.92C414.775 63.6 414.155 63.44 413.475 63.44C412.808 63.44 412.188 63.6067 411.615 63.94C411.055 64.26 410.601 64.7333 410.255 65.36C409.921 65.9733 409.755 66.6867 409.755 67.5C409.755 68.3267 409.921 69.0533 410.255 69.68C410.601 70.2933 411.055 70.7667 411.615 71.1C412.188 71.42 412.808 71.58 413.475 71.58C414.155 71.58 414.775 71.42 415.335 71.1C415.908 70.7667 416.361 70.2933 416.695 69.68C417.028 69.0533 417.195 68.32 417.195 67.48ZM425.33 73.18C424.49 73.18 423.737 73.04 423.07 72.76C422.403 72.4667 421.877 72.0667 421.49 71.56C421.103 71.04 420.89 70.4467 420.85 69.78H422.73C422.783 70.3267 423.037 70.7733 423.49 71.12C423.957 71.4667 424.563 71.64 425.31 71.64C426.003 71.64 426.55 71.4867 426.95 71.18C427.35 70.8733 427.55 70.4867 427.55 70.02C427.55 69.54 427.337 69.1867 426.91 68.96C426.483 68.72 425.823 68.4867 424.93 68.26C424.117 68.0467 423.45 67.8333 422.93 67.62C422.423 67.3933 421.983 67.0667 421.61 66.64C421.25 66.2 421.07 65.6267 421.07 64.92C421.07 64.36 421.237 63.8467 421.57 63.38C421.903 62.9133 422.377 62.5467 422.99 62.28C423.603 62 424.303 61.86 425.09 61.86C426.303 61.86 427.283 62.1667 428.03 62.78C428.777 63.3933 429.177 64.2333 429.23 65.3H427.41C427.37 64.7267 427.137 64.2667 426.71 63.92C426.297 63.5733 425.737 63.4 425.03 63.4C424.377 63.4 423.857 63.54 423.47 63.82C423.083 64.1 422.89 64.4667 422.89 64.92C422.89 65.28 423.003 65.58 423.23 65.82C423.47 66.0467 423.763 66.2333 424.11 66.38C424.47 66.5133 424.963 66.6667 425.59 66.84C426.377 67.0533 427.017 67.2667 427.51 67.48C428.003 67.68 428.423 67.9867 428.77 68.4C429.13 68.8133 429.317 69.3533 429.33 70.02C429.33 70.62 429.163 71.16 428.83 71.64C428.497 72.12 428.023 72.5 427.41 72.78C426.81 73.0467 426.117 73.18 425.33 73.18ZM432.839 60.26C432.493 60.26 432.199 60.14 431.959 59.9C431.719 59.66 431.599 59.3667 431.599 59.02C431.599 58.6733 431.719 58.38 431.959 58.14C432.199 57.9 432.493 57.78 432.839 57.78C433.173 57.78 433.453 57.9 433.679 58.14C433.919 58.38 434.039 58.6733 434.039 59.02C434.039 59.3667 433.919 59.66 433.679 59.9C433.453 60.14 433.173 60.26 432.839 60.26ZM433.719 62.04V73H431.899V62.04H433.719ZM439.041 63.54V70C439.041 70.5333 439.155 70.9133 439.381 71.14C439.608 71.3533 440.001 71.46 440.561 71.46H441.901V73H440.261C439.248 73 438.488 72.7667 437.981 72.3C437.475 71.8333 437.221 71.0667 437.221 70V63.54H435.801V62.04H437.221V59.28H439.041V62.04H441.901V63.54H439.041ZM454.106 67.1C454.106 67.4467 454.086 67.8133 454.046 68.2H445.286C445.353 69.28 445.72 70.1267 446.386 70.74C447.066 71.34 447.886 71.64 448.846 71.64C449.633 71.64 450.286 71.46 450.806 71.1C451.34 70.7267 451.713 70.2333 451.926 69.62H453.886C453.593 70.6733 453.006 71.5333 452.126 72.2C451.246 72.8533 450.153 73.18 448.846 73.18C447.806 73.18 446.873 72.9467 446.046 72.48C445.233 72.0133 444.593 71.3533 444.126 70.5C443.66 69.6333 443.426 68.6333 443.426 67.5C443.426 66.3667 443.653 65.3733 444.106 64.52C444.56 63.6667 445.193 63.0133 446.006 62.56C446.833 62.0933 447.78 61.86 448.846 61.86C449.886 61.86 450.806 62.0867 451.606 62.54C452.406 62.9933 453.02 63.62 453.446 64.42C453.886 65.2067 454.106 66.1 454.106 67.1ZM452.226 66.72C452.226 66.0267 452.073 65.4333 451.766 64.94C451.46 64.4333 451.04 64.0533 450.506 63.8C449.986 63.5333 449.406 63.4 448.766 63.4C447.846 63.4 447.06 63.6933 446.406 64.28C445.766 64.8667 445.4 65.68 445.306 66.72H452.226Z" fill="white"/>
</svg>
