<svg width="24" height="24" viewBox="0 0 24 24" fill="none" xmlns="http://www.w3.org/2000/svg">
<path fill-rule="evenodd" clip-rule="evenodd" d="M19.1305 4.8619C18.2001 3.93115 17.0949 3.1936 15.8784 2.6917C14.6619 2.18981 13.3582 1.93348 12.0422 1.93749C6.51953 1.93749 2.02375 6.41081 2.0215 11.9101C2.01906 13.6613 2.48065 15.3817 3.35928 16.8965L1.9375 22.0625L7.24951 20.6757C8.7199 21.4723 10.3659 21.8892 12.0382 21.8886H12.0422C17.5645 21.8886 22.0598 17.4149 22.0625 11.916C22.0658 10.6045 21.8083 9.30547 21.305 8.09445C20.8016 6.88342 20.0624 5.7846 19.1305 4.8619ZM12.0422 20.2054H12.0386C10.5478 20.2059 9.08417 19.8069 7.79981 19.05L7.49568 18.8703L4.34352 19.6933L5.1849 16.6346L4.9868 16.3201C4.15322 15.0004 3.71158 13.4711 3.71326 11.9101C3.71326 7.34024 7.45121 3.62206 12.0454 3.62206C14.2492 3.61812 16.3644 4.48974 17.9257 6.0452C19.487 7.60066 20.3665 9.71257 20.3707 11.9164C20.3689 16.4868 16.6328 20.2054 12.0422 20.2054ZM16.6103 13.9977C16.3601 13.8728 15.1279 13.2699 14.8997 13.1868C14.6715 13.1037 14.503 13.0619 14.3364 13.3117C14.1697 13.5615 13.6895 14.1203 13.5435 14.2888C13.3975 14.4572 13.2515 14.4756 13.0013 14.3507C12.7511 14.2259 11.9438 13.9631 10.9875 13.114C10.2431 12.4532 9.74088 11.6375 9.59488 11.3881C9.44889 11.1388 9.57916 11.0036 9.70449 10.8796C9.81725 10.7678 9.95471 10.5885 10.08 10.443C10.2054 10.2974 10.2471 10.1932 10.3303 10.027C10.4134 9.86081 10.372 9.71526 10.3096 9.59082C10.2471 9.46639 9.74627 8.23957 9.53783 7.74049C9.33434 7.25444 9.12814 7.32047 8.97451 7.31284C8.82852 7.30565 8.66006 7.30385 8.4943 7.30385C8.36758 7.30715 8.2429 7.33654 8.12804 7.39018C8.01319 7.44382 7.91063 7.52056 7.82676 7.61561C7.59721 7.86538 6.95033 8.46913 6.95033 9.69459C6.95033 10.9201 7.84877 12.106 7.97275 12.2722C8.09674 12.4384 9.73818 14.9554 12.2498 16.0349C12.7161 16.2346 13.1927 16.4097 13.6774 16.5596C14.2771 16.7491 14.8229 16.7226 15.2541 16.6584C15.7353 16.587 16.7366 16.0555 16.9446 15.4733C17.1525 14.8912 17.153 14.3925 17.0905 14.2888C17.0281 14.185 16.861 14.1221 16.6103 13.9977Z" fill="white"/>
</svg>
